<svg width="22" height="22" viewBox="0 0 22 22" fill="none" xmlns="http://www.w3.org/2000/svg">
<g clip-path="url(#clip0_403_3041)">
<path d="M19.9759 17.1447C19.6432 17.9133 19.2494 18.6208 18.7931 19.2713C18.1711 20.158 17.6619 20.7719 17.2694 21.1127C16.661 21.6722 16.0092 21.9587 15.3112 21.975C14.8101 21.975 14.2058 21.8324 13.5024 21.5432C12.7966 21.2553 12.1481 21.1127 11.555 21.1127C10.9331 21.1127 10.266 21.2553 9.55256 21.5432C8.83799 21.8324 8.26234 21.9832 7.82222 21.9981C7.15287 22.0266 6.4857 21.732 5.81974 21.1127C5.39469 20.742 4.86304 20.1064 4.22615 19.2061C3.54281 18.2446 2.98102 17.1297 2.5409 15.8587C2.06954 14.4858 1.83325 13.1563 1.83325 11.8692C1.83325 10.3948 2.15183 9.12321 2.78995 8.0576C3.29145 7.20166 3.95863 6.52647 4.79365 6.03081C5.62867 5.53514 6.53092 5.28256 7.50255 5.2664C8.0342 5.2664 8.73139 5.43085 9.59778 5.75405C10.4617 6.07834 11.0165 6.24279 11.2597 6.24279C11.4415 6.24279 12.0578 6.0505 13.1025 5.66714C14.0904 5.31162 14.9242 5.16442 15.6073 5.2224C17.4582 5.37178 18.8488 6.10142 19.7735 7.41595C18.1182 8.41896 17.2993 9.82379 17.3156 11.626C17.3305 13.0297 17.8398 14.1979 18.8406 15.1254C19.2942 15.5558 19.8007 15.8885 20.3643 16.1248C20.242 16.4793 20.113 16.8188 19.9759 17.1447ZM15.7308 0.440125C15.7308 1.54038 15.3289 2.56768 14.5277 3.51854C13.5608 4.64892 12.3913 5.30211 11.1231 5.19904C11.1069 5.06705 11.0975 4.92813 11.0975 4.78214C11.0975 3.7259 11.5573 2.59552 12.3739 1.67127C12.7816 1.20331 13.3 0.814209 13.9288 0.503814C14.5562 0.19805 15.1496 0.0289566 15.7077 0C15.724 0.147086 15.7308 0.294182 15.7308 0.440111V0.440125Z" fill="white"/>
</g>
<defs>
<clipPath id="clip0_403_3041">
<rect width="22" height="22" fill="white"/>
</clipPath>
</defs>
</svg>
