<svg width="155" height="144" viewBox="0 0 155 144" fill="none" xmlns="http://www.w3.org/2000/svg">
<path d="M55.0714 60.8937C70.5551 60.8937 83.1071 48.3417 83.1071 32.858C83.1071 17.3743 70.5551 4.82227 55.0714 4.82227C39.5877 4.82227 27.0357 17.3743 27.0357 32.858C27.0357 48.3417 39.5877 60.8937 55.0714 60.8937Z" stroke="black" stroke-width="8" stroke-linecap="round" stroke-linejoin="round"/>
<path d="M4.60712 139.393H55.0714H105.536V133.314C105.446 124.766 103.192 116.38 98.9835 108.941C94.7748 101.5 88.749 95.2481 81.469 90.7681C74.189 86.288 65.8922 83.7263 57.3537 83.322C56.5925 83.286 55.8315 83.2672 55.0714 83.2656C54.3113 83.2672 53.5503 83.286 52.7891 83.322C44.2506 83.7263 35.9538 86.288 28.6738 90.7681C21.3938 95.2481 15.368 101.5 11.1593 108.941C6.95064 116.38 4.69639 124.766 4.60712 133.314V139.393Z" stroke="black" stroke-width="8" stroke-linecap="round" stroke-linejoin="round"/>
<path d="M99.9285 60.8937C115.412 60.8937 127.964 48.3417 127.964 32.858C127.964 17.3743 115.412 4.82227 99.9285 4.82227" stroke="black" stroke-width="8" stroke-linecap="round" stroke-linejoin="round"/>
<path d="M127.964 139.395H150.393V133.315C150.303 124.767 148.049 116.381 143.84 108.942C139.632 101.501 133.606 95.2494 126.326 90.7694C121.62 87.8734 116.489 85.779 111.143 84.5508" stroke="black" stroke-width="8" stroke-linecap="round" stroke-linejoin="round"/>
</svg>
