<svg width="123" height="112" viewBox="0 0 123 112" fill="none" xmlns="http://www.w3.org/2000/svg">
<path fill-rule="evenodd" clip-rule="evenodd" d="M87.4511 26.2C87.4511 40.5318 75.8328 52.15 61.5011 52.15C47.1693 52.15 35.5511 40.5318 35.5511 26.2C35.5511 11.8682 47.1693 0.25 61.5011 0.25C75.8328 0.25 87.4511 11.8682 87.4511 26.2ZM78.8011 26.2C78.8011 35.7545 71.0556 43.5 61.5011 43.5C51.9465 43.5 44.2011 35.7545 44.2011 26.2C44.2011 16.6455 51.9465 8.9 61.5011 8.9C71.0556 8.9 78.8011 16.6455 78.8011 26.2Z" fill="black"/>
<path d="M61.5011 65.125C33.4993 65.125 9.64117 81.6829 0.552979 104.881C2.76692 107.079 5.09915 109.159 7.53927 111.109C14.3068 89.8108 35.5369 73.775 61.5011 73.775C87.4653 73.775 108.695 89.8108 115.463 111.109C117.903 109.159 120.235 107.079 122.449 104.881C113.361 81.6829 89.5028 65.125 61.5011 65.125Z" fill="black"/>
</svg>
