<svg width="28" height="26" viewBox="0 0 28 26" fill="none" xmlns="http://www.w3.org/2000/svg">
<path d="M3 9H25V23C25 23.5304 24.7892 24.0392 24.4142 24.4142C24.0392 24.7892 23.5304 25 23 25H5C4.46956 25 3.96086 24.7892 3.58578 24.4142C3.21072 24.0392 3 23.5304 3 23V9Z" stroke="#FBBC05" stroke-width="2" stroke-linecap="round" stroke-linejoin="round"/>
<path d="M27 7V3C27 1.89544 26.1046 1 25 1H3C1.89543 1 1 1.89544 1 3V7C1 8.10456 1.89543 9 3 9H25C26.1046 9 27 8.10456 27 7Z" stroke="#FBBC05" stroke-width="2" stroke-linecap="round" stroke-linejoin="round"/>
<path d="M11 15H17" stroke="#FBBC05" stroke-width="2" stroke-linecap="round" stroke-linejoin="round"/>
</svg>
