<svg width="27" height="27" viewBox="0 0 27 27" fill="none" xmlns="http://www.w3.org/2000/svg">
<path d="M22.1794 9.64341C22.1794 15.4291 13.5008 22.1791 13.5008 22.1791C13.5008 22.1791 4.82227 15.4291 4.82227 9.64341C4.82227 4.91649 8.77391 0.964844 13.5008 0.964844C18.2278 0.964844 22.1794 4.91649 22.1794 9.64341Z" stroke="#FBBC05" stroke-width="2" stroke-linecap="round" stroke-linejoin="round"/>
<path d="M13.5003 12.5357C15.098 12.5357 16.3931 11.2405 16.3931 9.64286C16.3931 8.04517 15.098 6.75 13.5003 6.75C11.9026 6.75 10.6074 8.04517 10.6074 9.64286C10.6074 11.2405 11.9026 12.5357 13.5003 12.5357Z" stroke="#FBBC05" stroke-width="2" stroke-linecap="round" stroke-linejoin="round"/>
<path d="M21.3639 19.2871H23.1434L26.0363 26.0371H0.964844L3.8577 19.2871H5.63719" stroke="#FBBC05" stroke-width="2" stroke-linecap="round" stroke-linejoin="round"/>
</svg>
