<svg width="26" height="26" viewBox="0 0 26 26" fill="none" xmlns="http://www.w3.org/2000/svg">
<path d="M10.6043 8.00441C7.03857 5.57155 3.71429 7.42869 0.928572 10.2887L7.09429 14.003" stroke="#FBBC05" stroke-width="2" stroke-linecap="round" stroke-linejoin="round"/>
<path d="M17.9958 15.3955C20.4286 18.9611 18.5714 22.2854 15.7115 25.0711L11.9972 18.9054" stroke="#FBBC05" stroke-width="2" stroke-linecap="round" stroke-linejoin="round"/>
<path d="M7.09431 13.9844L12.0157 18.9059C15.9529 16.5473 20.4286 14.263 22.4714 12.1458C26.8914 7.72585 24.3286 1.67157 24.3286 1.67157C24.3286 1.67157 18.2743 -0.891286 13.8543 3.5287C11.7372 5.57156 9.43431 10.0659 7.09431 13.9844Z" stroke="#FBBC05" stroke-width="2" stroke-linecap="round" stroke-linejoin="round"/>
<path d="M9.80577 9.32324L16.6772 16.1947" stroke="#FBBC05" stroke-width="2" stroke-linecap="round" stroke-linejoin="round"/>
<path d="M19.5 7.42843C20.0128 7.42843 20.4286 7.01269 20.4286 6.49986C20.4286 5.98703 20.0128 5.57129 19.5 5.57129C18.9872 5.57129 18.5714 5.98703 18.5714 6.49986C18.5714 7.01269 18.9872 7.42843 19.5 7.42843Z" stroke="#FBBC05" stroke-width="2" stroke-linecap="round" stroke-linejoin="round"/>
<path d="M6.83429 23.103C5.75714 24.143 0.928572 25.0716 0.928572 25.0716C0.928572 25.0716 1.85714 20.243 2.89714 19.1658C3.15217 18.8923 3.45971 18.6728 3.80142 18.5205C4.14314 18.3682 4.51202 18.2863 4.88605 18.2797C5.2601 18.2731 5.63164 18.3419 5.97851 18.482C6.32537 18.6221 6.64047 18.8306 6.90501 19.0953C7.16952 19.3597 7.37806 19.6749 7.51818 20.0218C7.65828 20.3685 7.72709 20.7401 7.72048 21.1142C7.71388 21.4882 7.63202 21.857 7.47976 22.1987C7.32751 22.5405 7.10797 22.848 6.83429 23.103Z" stroke="#FBBC05" stroke-width="2" stroke-linecap="round" stroke-linejoin="round"/>
</svg>
