<svg width="26" height="26" viewBox="0 0 26 26" fill="none" xmlns="http://www.w3.org/2000/svg">
<path d="M11.1428 24.6064H14.8571" stroke="black" stroke-width="2" stroke-linecap="round" stroke-linejoin="round"/>
<path d="M20.4286 10.6786C20.4286 8.70838 19.646 6.81891 18.2528 5.42577C16.8597 4.03266 14.9702 3.25 13.0001 3.25C11.0299 3.25 9.14039 4.03266 7.74725 5.42577C6.35414 6.81891 5.57148 8.70838 5.57148 10.6786V17.1786C5.57148 17.9174 5.27798 18.626 4.75556 19.1484C4.23315 19.6709 3.52458 19.9643 2.78577 19.9643H23.2143C22.4756 19.9643 21.7669 19.6709 21.2445 19.1484C20.722 18.626 20.4286 17.9174 20.4286 17.1786V10.6786Z" stroke="black" stroke-width="2" stroke-linecap="round" stroke-linejoin="round"/>
<path d="M0.928589 10.4369C0.92959 8.66912 1.35115 6.92699 2.15846 5.35436C2.96576 3.78174 4.13563 2.42376 5.57145 1.39258" stroke="black" stroke-width="2" stroke-linecap="round" stroke-linejoin="round"/>
<path d="M25.0714 10.4369C25.0705 8.66912 24.6489 6.92699 23.8416 5.35436C23.0343 3.78174 21.8643 2.42376 20.4286 1.39258" stroke="black" stroke-width="2" stroke-linecap="round" stroke-linejoin="round"/>
</svg>
