<svg width="22" height="18" viewBox="0 0 22 18" fill="none" xmlns="http://www.w3.org/2000/svg">
<path d="M21.2142 5.85686C21.2142 5.44009 21.0486 5.0404 20.7539 4.74569C20.4593 4.451 20.0595 4.28544 19.6428 4.28544H16.4999L14.1428 1.14258H7.85707L5.49993 4.28544H2.35707C1.9403 4.28544 1.54061 4.451 1.2459 4.74569C0.951206 5.0404 0.785645 5.44009 0.785645 5.85686V15.2854C0.785645 15.7022 0.951206 16.1019 1.2459 16.3966C1.54061 16.6912 1.9403 16.8569 2.35707 16.8569H19.6428C20.0595 16.8569 20.4593 16.6912 20.7539 16.3966C21.0486 16.1019 21.2142 15.7022 21.2142 15.2854V5.85686Z" stroke="black" stroke-linecap="round" stroke-linejoin="round"/>
<path d="M10.9998 13.3214C12.9525 13.3214 14.5355 11.7384 14.5355 9.78571C14.5355 7.83299 12.9525 6.25 10.9998 6.25C9.04711 6.25 7.46411 7.83299 7.46411 9.78571C7.46411 11.7384 9.04711 13.3214 10.9998 13.3214Z" stroke="black" stroke-linecap="round" stroke-linejoin="round"/>
</svg>
