<svg width="36" height="38" viewBox="0 0 36 38" fill="none" xmlns="http://www.w3.org/2000/svg">
<path d="M34.7745 36.6427C33.6348 33.0892 31.3963 29.9895 28.3818 27.7904C25.3669 25.5913 21.7317 24.4062 18.0001 24.4062C14.2685 24.4062 10.6333 25.5913 7.61855 27.7904C4.60385 29.9895 2.36535 33.0892 1.22583 36.6427H34.7745Z" stroke="#1D2228" stroke-width="1.5" stroke-linecap="round" stroke-linejoin="round"/>
<path d="M18 24.4291C24.3441 24.4291 29.4871 19.2862 29.4871 12.9421C29.4871 6.59797 24.3441 1.45508 18 1.45508C11.6559 1.45508 6.51294 6.59797 6.51294 12.9421C6.51294 19.2862 11.6559 24.4291 18 24.4291Z" stroke="#1D2228" stroke-width="1.5" stroke-linecap="round" stroke-linejoin="round"/>
<path d="M21.751 17.3867C21.751 17.3867 20.7979 19.2621 18.0001 19.2621C15.2024 19.2621 14.2493 17.3867 14.2493 17.3867" stroke="#1D2228" stroke-width="1.5" stroke-linecap="round" stroke-linejoin="round"/>
<path d="M29.2789 10.755C29.2531 10.7552 29.2276 10.7553 29.2021 10.7553C25.863 10.7553 22.8653 9.29448 20.8129 6.97713C18.7606 9.29454 15.7628 10.7554 12.4239 10.7554C10.4849 10.7554 8.66105 10.2627 7.07056 9.39586C8.56488 4.78725 12.8932 1.45508 17.9997 1.45508C23.596 1.45508 28.2575 5.45694 29.2789 10.755Z" stroke="#1D2228" stroke-width="1.5" stroke-linecap="round" stroke-linejoin="round"/>
</svg>
