<svg width="32" height="32" viewBox="0 0 32 32" fill="none" xmlns="http://www.w3.org/2000/svg">
<path d="M15.6341 30.2683C7.55193 30.2683 1 23.7164 1 15.6341C1 7.55193 7.55193 1 15.6341 1C21.7757 1 27.0336 4.78324 29.2045 10.1463M2.82927 21.1219H7.09756C8.78136 21.1219 10.1463 19.757 10.1463 18.0732V14.1098C10.1463 12.426 11.5113 11.061 13.1951 11.061H16.2439C17.9277 11.061 19.2927 9.69599 19.2927 8.0122V2.82927M25.1463 21.4878V21.3778M31 21.3605C31 25.1781 25.1463 30.2683 25.1463 30.2683C25.1463 30.2683 19.2927 25.1781 19.2927 21.3605C19.2927 18.1979 21.9135 15.6341 25.1463 15.6341C28.3792 15.6341 31 18.1979 31 21.3605Z" stroke="black" stroke-width="2" stroke-linecap="round" stroke-linejoin="round"/>
</svg>
