<svg width="32" height="33" viewBox="0 0 32 33" fill="none" xmlns="http://www.w3.org/2000/svg">
<path d="M29.9687 14.625L27.25 11.9081V5.25C27.25 4.21875 26.4063 3.375 25.375 3.375H23.5C22.4687 3.375 21.625 4.21875 21.625 5.25V6.28687L17.875 2.54063C17.3631 2.05688 16.8944 1.5 16 1.5C15.1056 1.5 14.6369 2.05688 14.125 2.54063L2.03125 14.625C1.44625 15.2344 1 15.6788 1 16.5C1 17.5556 1.81 18.375 2.875 18.375H4.75V29.625C4.75 30.6563 5.59375 31.5 6.625 31.5H10.375C11.4105 31.5 12.25 30.6605 12.25 29.625V22.125C12.25 21.0937 13.0937 20.25 14.125 20.25H17.875C18.9063 20.25 19.75 21.0937 19.75 22.125V29.625C19.75 30.6605 19.652 31.5 20.6875 31.5H25.375C26.4063 31.5 27.25 30.6563 27.25 29.625V18.375H29.125C30.19 18.375 31 17.5556 31 16.5C31 15.6788 30.5537 15.2344 29.9687 14.625Z" stroke="#FBBC05" stroke-width="2" stroke-linejoin="round"/>
</svg>
