<svg width="34" height="10" viewBox="0 0 34 10" fill="none" xmlns="http://www.w3.org/2000/svg">
<path d="M9 5C9 7.20914 7.20914 9 5 9C2.79086 9 1 7.20914 1 5C1 2.79086 2.79086 1 5 1C7.20914 1 9 2.79086 9 5Z" stroke="black" stroke-width="2"/>
<path d="M21 5C21 7.20914 19.2091 9 17 9C14.7909 9 13 7.20914 13 5C13 2.79086 14.7909 1 17 1C19.2091 1 21 2.79086 21 5Z" stroke="black" stroke-width="2"/>
<path d="M33 5C33 7.20914 31.2091 9 29 9C26.7909 9 25 7.20914 25 5C25 2.79086 26.7909 1 29 1C31.2091 1 33 2.79086 33 5Z" stroke="black" stroke-width="2"/>
</svg>
