<svg width="37" height="37" viewBox="0 0 37 37" fill="none" xmlns="http://www.w3.org/2000/svg">
<path d="M24.4466 13.2148C27.4256 13.2148 30.2826 14.3982 32.3889 16.5047C34.4953 18.6111 35.6787 21.468 35.6787 24.447C35.6859 26.658 35.0323 28.8207 33.8023 30.6577L35.6787 35.6791L29.3623 34.5427C27.8432 35.2835 26.1766 35.672 24.4866 35.6791C22.7966 35.6863 21.1267 35.3118 19.6014 34.5839C18.0761 33.8561 16.7348 32.7931 15.6774 31.4749C14.6199 30.1566 13.8736 28.6166 13.494 26.9696C13.1144 25.3228 13.1114 23.6115 13.4851 21.9633C13.8588 20.315 14.5997 18.7724 15.6524 17.4503C16.7052 16.1282 18.0427 15.0607 19.5654 14.3274C21.0881 13.594 22.7566 13.2137 24.4466 13.2148Z" stroke="#28A4E9" stroke-width="2" stroke-linecap="round" stroke-linejoin="round"/>
<path d="M26.0595 6.6334C24.2797 4.36865 21.838 2.71523 19.0744 1.90333C16.3108 1.09142 13.3628 1.16145 10.6409 2.10366C7.91894 3.04588 5.55856 4.81337 3.8883 7.16007C2.21806 9.50674 1.32111 12.3159 1.32233 15.1963C1.31414 17.9343 2.12399 20.6123 3.64803 22.887L1.32233 29.0711L6.92518 28.0669" stroke="#28A4E9" stroke-width="2" stroke-linecap="round" stroke-linejoin="round"/>
</svg>
