<svg width="32" height="32" viewBox="0 0 32 32" fill="none" xmlns="http://www.w3.org/2000/svg">
<path d="M29.9687 14.125L27.25 11.4081V4.75C27.25 3.71875 26.4063 2.875 25.375 2.875H23.5C22.4687 2.875 21.625 3.71875 21.625 4.75V5.78687L17.875 2.04063C17.3631 1.55688 16.8944 1 16 1C15.1056 1 14.6369 1.55688 14.125 2.04063L2.03125 14.125C1.44625 14.7344 1 15.1788 1 16C1 17.0556 1.81 17.875 2.875 17.875H4.75V29.125C4.75 30.1563 5.59375 31 6.625 31H10.375C11.4105 31 12.25 30.1605 12.25 29.125V21.625C12.25 20.5937 13.0937 19.75 14.125 19.75H17.875C18.9063 19.75 19.75 20.5937 19.75 21.625V29.125C19.75 30.1605 19.652 31 20.6875 31H25.375C26.4063 31 27.25 30.1563 27.25 29.125V17.875H29.125C30.19 17.875 31 17.0556 31 16C31 15.1788 30.5537 14.7344 29.9687 14.125Z" stroke="#FBBC05" stroke-opacity="0.4" stroke-width="2" stroke-linejoin="round"/>
</svg>
