<svg width="23" height="23" viewBox="0 0 23 23" fill="none" xmlns="http://www.w3.org/2000/svg">
<path d="M2.46512 22.1794H20.5366C21.4439 22.1794 22.1794 21.4439 22.1794 20.5366V2.46512C22.1794 1.5578 21.4439 0.822266 20.5366 0.822266H2.46512C1.5578 0.822266 0.822266 1.5578 0.822266 2.46512V20.5366C0.822266 21.4439 1.5578 22.1794 2.46512 22.1794Z" stroke="black" stroke-linecap="round" stroke-linejoin="round"/>
<path d="M2.875 22.1787L14.8679 10.8758C15.0155 10.7529 15.2015 10.6855 15.3936 10.6855C15.5857 10.6855 15.7717 10.7529 15.9193 10.8758L22.1786 15.3608" stroke="black" stroke-linecap="round" stroke-linejoin="round"/>
<path d="M7.39397 9.85826C8.75497 9.85826 9.85826 8.75497 9.85826 7.39397C9.85826 6.03298 8.75497 4.92969 7.39397 4.92969C6.03298 4.92969 4.92969 6.03298 4.92969 7.39397C4.92969 8.75497 6.03298 9.85826 7.39397 9.85826Z" stroke="black" stroke-linecap="round" stroke-linejoin="round"/>
</svg>
