<svg width="26" height="31" viewBox="0 0 26 31" fill="none" xmlns="http://www.w3.org/2000/svg">
<path d="M1.90625 14.6152H11.0305" stroke="black" stroke-width="2" stroke-linecap="round" stroke-linejoin="round"/>
<path d="M3.93555 14.6152V21.1243C3.93555 22.5241 5.07029 23.6588 6.47006 23.6588C7.86983 23.6588 9.00458 22.5241 9.00458 21.1243V14.6152" stroke="black" stroke-width="2" stroke-linecap="round" stroke-linejoin="round"/>
<path d="M6.43945 23.668V28.5553" stroke="black" stroke-width="2" stroke-linecap="round" stroke-linejoin="round"/>
<path d="M4.94629 28.5918H7.98771" stroke="black" stroke-width="2" stroke-linecap="round" stroke-linejoin="round"/>
<path d="M16.5484 9.62998C18.9293 9.62998 20.8594 7.69983 20.8594 5.31889C20.8594 2.93796 18.9293 1.00781 16.5484 1.00781C14.1674 1.00781 12.2373 2.93796 12.2373 5.31889C12.2373 7.69983 14.1674 9.62998 16.5484 9.62998Z" stroke="black" stroke-width="2" stroke-linecap="round" stroke-linejoin="round"/>
<path d="M12.2373 10.9839C13.4937 10.1091 14.9964 9.63086 16.5484 9.63086C18.5493 9.63086 20.4683 10.4257 21.8832 11.8406C23.2978 13.2554 24.0928 15.1744 24.0928 17.1752V20.4086H20.8594L19.7817 29.0307H13.3151L12.4162 21.8395" stroke="black" stroke-width="2" stroke-linecap="round" stroke-linejoin="round"/>
</svg>
