<svg width="33" height="32" viewBox="0 0 33 32" fill="none" xmlns="http://www.w3.org/2000/svg">
<path d="M17.7036 1.7483L21.5041 9.421C21.5905 9.61576 21.7265 9.78444 21.8984 9.91026C22.0704 10.0361 22.2723 10.1146 22.4841 10.1381L30.8738 11.381C31.1169 11.4122 31.3458 11.5119 31.5342 11.6685C31.7225 11.825 31.8626 12.0319 31.9377 12.2649C32.013 12.498 32.0201 12.7477 31.9587 12.9848C31.8975 13.2219 31.7699 13.4366 31.5908 13.6039L25.5435 19.6035C25.3893 19.7477 25.2734 19.9282 25.2067 20.1286C25.1398 20.3289 25.1243 20.5428 25.1611 20.7508L26.6191 29.1883C26.6614 29.4309 26.6347 29.6802 26.5422 29.9082C26.4497 30.1363 26.295 30.3337 26.0957 30.4783C25.8965 30.6227 25.6606 30.7083 25.4151 30.7255C25.1697 30.7424 24.9242 30.6903 24.7069 30.5746L17.1538 26.5829C16.9604 26.488 16.7478 26.4388 16.5323 26.4388C16.3169 26.4388 16.1043 26.488 15.9109 26.5829L8.35767 30.5746C8.14037 30.6903 7.89501 30.7424 7.64951 30.7255C7.40401 30.7083 7.16821 30.6227 6.96898 30.4783C6.76973 30.3337 6.61503 30.1363 6.52248 29.9082C6.42996 29.6802 6.40326 29.4309 6.44547 29.1883L7.90352 20.6552C7.94047 20.4472 7.92484 20.2333 7.85806 20.033C7.79128 19.8326 7.67542 19.6521 7.52108 19.5079L1.40205 13.6039C1.22101 13.4321 1.0937 13.2114 1.03553 12.9687C0.977364 12.7259 0.990836 12.4715 1.07431 12.2362C1.15779 12.001 1.30769 11.795 1.50586 11.6432C1.70402 11.4914 1.94196 11.4003 2.19082 11.381L10.5806 10.1381C10.7924 10.1146 10.9943 10.0361 11.1663 9.91026C11.3382 9.78444 11.4742 9.61576 11.5606 9.421L15.3611 1.7483C15.4646 1.52483 15.6299 1.33564 15.8374 1.20304C16.0449 1.07045 16.2861 1 16.5323 1C16.7786 1 17.0197 1.07045 17.2273 1.20304C17.4348 1.33564 17.6001 1.52483 17.7036 1.7483Z" stroke="black" stroke-width="2" stroke-linecap="round" stroke-linejoin="round"/>
</svg>
